<?xml version="1.0" encoding="UTF-8"?>
<svg version="1.1" xmlns="http://www.w3.org/2000/svg" width="512" height="512">
<path d="M0 0 C1.85624168 -0.00417627 3.7124808 -0.00965539 5.56871521 -0.01631981 C10.6537137 -0.03075467 15.73854984 -0.02653579 20.82355714 -0.019153 C26.3137935 -0.0144188 31.80399486 -0.02693342 37.29421997 -0.03717041 C48.04390438 -0.05435878 58.79353033 -0.05519833 69.54322492 -0.04995751 C78.28144842 -0.04591464 87.01965467 -0.04736075 95.75787735 -0.05270576 C97.00197033 -0.05345419 98.24606332 -0.05420261 99.52785609 -0.05497371 C102.05530198 -0.0565052 104.58274786 -0.05804355 107.11019374 -0.05958868 C124.07752254 -0.06941597 141.04484425 -0.07358273 158.01217461 -0.06596279 C159.00686111 -0.06551703 159.00686111 -0.06551703 160.02164229 -0.06506227 C165.40626685 -0.06261347 170.79089133 -0.06000181 176.17551581 -0.05737813 C197.17629588 -0.04727679 218.17699598 -0.05563057 239.17776489 -0.07887268 C262.78760812 -0.10496022 286.39741519 -0.1177397 310.0072757 -0.11068493 C322.50260598 -0.10719242 334.9978706 -0.10942695 347.49319077 -0.12693596 C358.13016041 -0.14165624 368.76701816 -0.14229556 379.4039856 -0.12486505 C384.82927569 -0.11635133 390.25436587 -0.11421477 395.67964554 -0.1295166 C400.6502413 -0.14336227 405.62046587 -0.13860184 410.59104015 -0.11927737 C412.38501986 -0.11551672 414.17902929 -0.11844118 415.97298251 -0.12888902 C429.39846194 -0.20149141 440.93512134 0.89686649 451.53274536 10.04393005 C460.7016312 19.54536616 463.09964631 28.88203479 463.06188965 41.63346863 C463.06642076 42.75874883 463.07095187 43.88402903 463.07562029 45.04340863 C463.08827024 48.81022587 463.08664351 52.57689863 463.08499146 56.34373474 C463.08989045 59.04610233 463.09772535 61.74845982 463.10534668 64.45082092 C463.12193542 71.02756404 463.12745527 77.60427129 463.12857144 84.18103358 C463.12952296 89.52927119 463.13363849 94.87749701 463.13997269 100.2257309 C463.15757966 115.40181539 463.16681246 130.57787164 463.16531174 145.75396642 C463.16519187 146.98031092 463.16519187 146.98031092 463.16506958 148.23143005 C463.16498782 149.04999581 463.16490606 149.86856156 463.16482182 150.71193233 C463.16400918 163.97341721 463.18314271 177.23478845 463.21134631 190.49624047 C463.24010273 204.12560285 463.25388508 217.75490985 463.25215876 231.38430333 C463.25149579 239.03109491 463.25694725 246.67776736 463.27851486 254.32453156 C463.29676307 260.83594712 463.3010443 267.34718955 463.28749602 273.85861966 C463.2809843 277.17761433 463.28297413 280.49600738 463.29820251 283.81501389 C463.31367567 287.42162245 463.30433177 291.02736649 463.28894043 294.63395691 C463.29922756 295.67104254 463.30951468 296.70812818 463.32011354 297.77664065 C463.22023406 308.40792321 459.97367581 317.08486768 453.06399536 325.16111755 C441.80902912 336.20299494 428.51510372 336.82862004 413.69572449 336.76863098 C411.83892096 336.77208971 409.98211948 336.77685573 408.12532228 336.78281271 C403.03419826 336.7953228 397.9432432 336.78915222 392.85211861 336.77985406 C387.35713508 336.77306394 381.86218052 336.78354466 376.36720276 336.79179382 C365.60668511 336.80513397 354.84623023 336.80225206 344.08571012 336.7935559 C335.33981853 336.78678054 326.59394453 336.785862 317.84805107 336.78912735 C316.60324515 336.78958705 315.35843923 336.79004675 314.07591192 336.79052038 C311.54709303 336.79147956 309.01827415 336.7924522 306.48945528 336.79343815 C283.45207086 336.80174909 260.41471609 336.79313021 237.37733887 336.77741036 C216.35661294 336.76317565 195.33594153 336.76444631 174.31521606 336.77879333 C150.68818684 336.79486538 127.06118162 336.80116724 103.43414587 336.79195654 C100.91432822 336.7910009 98.39451057 336.79005779 95.87469292 336.78912735 C94.63490531 336.78866452 93.3951177 336.7882017 92.11776077 336.78772485 C83.38344726 336.78513521 74.64915311 336.78950544 65.91484261 336.79656601 C55.26902144 336.80498263 44.62326663 336.80269748 33.97745306 336.78672378 C28.54637489 336.77884305 23.11540732 336.77574616 17.68432999 336.78567123 C12.71076844 336.79462269 7.73741984 336.78967768 2.76387756 336.77373858 C0.96653989 336.77039269 -0.83081585 336.77208051 -2.62814187 336.77936594 C-17.1844957 336.8338349 -28.00805584 335.50485192 -39.20553589 325.38768005 C-47.36703692 316.1409521 -49.6631224 307.00037585 -49.59321594 294.90138245 C-49.59860148 293.7743934 -49.60398702 292.64740434 -49.60953575 291.48626411 C-49.62379566 287.72558851 -49.61671621 283.96526588 -49.60958862 280.20457458 C-49.6136513 277.50190828 -49.62215767 274.79925979 -49.63038635 272.09660339 C-49.64754597 265.52679789 -49.64842025 258.95708814 -49.64317345 252.38726605 C-49.63912505 247.04479243 -49.64058324 241.70234701 -49.64592171 236.35987473 C-49.64667013 235.59827038 -49.64741855 234.83666604 -49.64818965 234.05198278 C-49.6497212 232.50456763 -49.65125955 230.95715248 -49.65280462 229.40973733 C-49.66651951 214.91179852 -49.66109919 200.41391372 -49.64961941 185.91597615 C-49.63968907 172.66754656 -49.65262602 159.41925667 -49.6765536 146.17084862 C-49.70096669 132.55045659 -49.71054698 118.93012957 -49.70390087 105.30971611 C-49.70041343 97.66966875 -49.7026092 90.02972879 -49.7201519 82.38969803 C-49.73490161 75.8856412 -49.73547338 69.38176739 -49.71808099 62.87771405 C-49.70959085 59.562763 -49.70955509 56.24840567 -49.72273254 52.93342972 C-49.73595569 49.33129544 -49.72438161 45.73004181 -49.70674133 42.12794495 C-49.71634634 41.09222355 -49.72595135 40.05650215 -49.73584741 38.98939526 C-49.61682247 27.13129621 -45.52040614 17.80593235 -37.20553589 9.38768005 C-26.17895917 -0.02961249 -13.80880385 -0.05055725 0 0 Z " fill="#FE4A55" transform="translate(49.205535888671875,87.61231994628906)"/>
<path d="M0 0 C1.14637487 -0.00525911 1.14637487 -0.00525911 2.31590882 -0.01062447 C4.87372581 -0.01991942 7.43131417 -0.01502009 9.98914051 -0.01015663 C11.84279163 -0.01389386 13.69644118 -0.01849567 15.55008823 -0.02388728 C20.6418317 -0.03612386 25.73350951 -0.03585602 30.82526433 -0.03349853 C36.31759331 -0.03309052 41.80990119 -0.04412796 47.30222034 -0.05361366 C58.06232971 -0.07022852 68.82241715 -0.07572344 79.58253827 -0.07683842 C88.32941191 -0.07778871 97.07627833 -0.08189808 105.82314968 -0.08823967 C126.58732742 -0.10298753 147.35150081 -0.11528925 168.11568451 -0.11424255 C168.77960689 -0.1142114 169.44352928 -0.11418024 170.12757052 -0.11414814 C173.49250636 -0.11398193 176.8574422 -0.11378384 180.22237804 -0.11357872 C180.89065014 -0.11353883 181.55892224 -0.11349894 182.24744502 -0.11345784 C183.59885441 -0.11337697 184.95026381 -0.11329337 186.3016732 -0.11320706 C207.32210115 -0.11198186 228.34246455 -0.12698958 249.36287403 -0.15435219 C272.98697475 -0.18509149 296.61104454 -0.20225821 320.23516876 -0.20042574 C332.74060868 -0.19976182 345.24597581 -0.2052553 357.75139904 -0.22678185 C368.39941504 -0.2449936 379.04732525 -0.249341 389.69535007 -0.235763 C395.12669908 -0.22923324 400.55784514 -0.22911661 405.98917484 -0.2464695 C410.9654349 -0.26220472 415.94133116 -0.25933177 420.91758237 -0.24190123 C422.71367328 -0.23883235 424.50979138 -0.2424595 426.30585023 -0.25362138 C439.73900514 -0.33154605 451.27827147 0.76062586 461.88264942 9.91351891 C471.81851501 20.20975267 473.44947874 29.98467318 473.37141895 43.71991539 C473.37085414 45.08053644 473.37117277 46.4411581 473.37230396 47.80177879 C473.37287575 51.47898694 473.36114982 55.15606354 473.34715605 58.83324122 C473.3346195 62.68226431 473.33347589 66.53129069 473.33110523 70.38033104 C473.32489904 77.66164975 473.30849991 84.94290812 473.28840625 92.22420031 C473.26602042 100.5168203 473.25504708 108.80944324 473.24501538 117.10208595 C473.22413289 134.15384845 473.1889737 151.20555229 473.14436817 168.25726891 C440.96643742 168.76152331 408.78965199 169.14968578 376.60868058 169.38070615 C372.79073599 169.40821453 368.97279919 169.43669032 365.15486622 169.465765 C364.01496859 169.47442124 364.01496859 169.47442124 362.85204273 169.48325236 C350.62227005 169.57841926 338.39482331 169.75154951 326.16642059 169.95463042 C313.57467881 170.16196703 300.98413604 170.28289188 288.39075798 170.32721579 C281.33457898 170.35443487 274.28324836 170.41923123 267.22881222 170.58333015 C236.62710654 171.27423005 212.01503447 171.59042223 188.20599347 150.52900589 C182.29826437 145.32915446 175.70243737 141.39644718 168.96631444 137.37057757 C166.07314606 135.60269369 163.26915156 133.71336389 160.45686817 131.81976891 C159.47061451 131.15847984 159.47061451 131.15847984 158.46443653 130.48383141 C157.89346241 130.09969078 157.32248829 129.71555016 156.73421192 129.31976891 C150.69252041 125.27442627 144.60315065 121.3013696 138.51936817 117.31976891 C137.897607 116.91275749 137.27584583 116.50574608 136.63524342 116.08640099 C133.42203746 113.98302132 130.20857577 111.88003289 126.99495411 109.77728844 C121.47599092 106.16582103 115.95942463 102.55069611 110.44276905 98.93570518 C107.42674238 96.95939651 104.41054638 94.9833463 101.39436817 93.00726891 C100.18603403 92.21560347 98.9777007 91.4239368 97.76936817 90.63226891 C97.17124317 90.24039391 96.57311817 89.84851891 95.95686817 89.44476891 C32.51936812 47.88226887 32.51936812 47.88226887 30.7072649 46.69502831 C29.49760978 45.90249599 28.28795402 45.10996466 27.07829762 44.31743431 C24.07768234 42.35152005 21.07707787 40.38558931 18.07649708 38.41962242 C12.39783939 34.69901725 6.71906442 30.9785914 1.03993702 27.25870323 C-1.65177369 25.49559084 -4.34342674 23.73239042 -7.03507519 21.96918297 C-8.32199288 21.12620262 -9.60893904 20.28326572 -10.89591503 19.44037437 C-12.67682951 18.2739794 -14.45764716 17.10743672 -16.23844433 15.94086266 C-17.25309765 15.27627037 -18.26775097 14.61167809 -19.31315136 13.92694664 C-21.16522537 12.71066719 -23.01202282 11.48634158 -24.85563183 10.25726891 C-23.50329415 6.97596226 -22.37969132 5.63394112 -19.16813183 4.13226891 C-18.52488964 3.82031578 -17.88164745 3.50836266 -17.21891308 3.18695641 C-11.45941042 0.9212347 -6.16290454 -0.03618363 0 0 Z " fill="#F4F4F4" transform="translate(38.855631828308105,87.74273109436035)"/>
<path d="M0 0 C3.98711254 1.4363992 7.28242938 3.34730102 10.8125 5.68359375 C11.36981812 6.05053848 11.92713623 6.41748322 12.50134277 6.79554749 C14.33697144 8.00543241 16.16842048 9.22149592 18 10.4375 C19.29851445 11.29474616 20.59734828 12.15150872 21.89648438 13.0078125 C24.59499186 14.78702777 27.29211343 16.56831568 29.98828125 18.35107422 C35.5516871 22.02747006 41.13165863 25.67850068 46.71166992 29.32962036 C49.7252428 31.30186496 52.73755262 33.2760369 55.75 35.25 C56.95832739 36.04167575 58.16666072 36.83334242 59.375 37.625 C182.625 118.375 182.625 118.375 184.43714905 119.56227112 C185.64665094 120.35470269 186.85615411 121.14713229 188.06565857 121.93955994 C191.06862354 123.90700755 194.07156681 125.87448826 197.07446289 127.84204102 C202.72494104 131.54428766 208.37564433 135.24618942 214.02706909 138.94699097 C216.6896766 140.69061111 219.35216697 142.43441006 222.01464844 144.17822266 C223.28102873 145.00757633 224.54746608 145.83684287 225.81396484 146.66601562 C227.57273687 147.81748598 229.33130995 148.96925961 231.08984375 150.12109375 C232.08878662 150.7752124 233.08772949 151.42933105 234.11694336 152.10327148 C237.0862487 154.05674199 240.04466556 156.02548003 243 158 C241.60705866 162.17882402 238.67823262 163.29743799 235.0625 165.4375 C233.5766894 166.34139438 232.09236391 167.24773358 230.609375 168.15625 C229.84044922 168.62675781 229.07152344 169.09726562 228.27929688 169.58203125 C224.73570311 171.78652917 221.27380216 174.10664867 217.8125 176.4375 C209.97289309 181.70031951 202.08840978 186.89242194 194.1875 192.0625 C193.57105621 192.46596649 192.95461243 192.86943298 192.31948853 193.28512573 C189.14734748 195.36123711 185.97488833 197.43686165 182.80224609 199.51220703 C177.30006304 203.1117414 171.80081133 206.71574888 166.30142212 210.31954956 C163.28440954 212.29656194 160.26719421 214.27326484 157.25 216.25 C156.0416657 217.04166519 154.83333237 217.83333186 153.625 218.625 C59.375 280.375 59.375 280.375 57.56286621 281.5622406 C56.35328838 282.35473562 55.14373438 283.14726701 53.9342041 283.93983459 C50.93260492 285.90662494 47.9306081 287.87280255 44.92773438 289.83764648 C39.26022187 293.54695977 33.59717219 297.26265699 27.94714355 300.99856567 C25.27639678 302.76400773 22.60349569 304.52617284 19.93041992 306.28808594 C18.65606242 307.1293843 17.3827639 307.97228926 16.1105957 308.81689453 C14.34721824 309.98747502 12.58027559 311.15248223 10.8125 312.31640625 C9.80832031 312.98099854 8.80414062 313.64559082 7.76953125 314.33032227 C5.22511535 315.86428386 2.78921967 316.99515429 0 318 C-1.26941265 316.57961351 -2.51435289 315.13735601 -3.75 313.6875 C-4.44609375 312.88699219 -5.1421875 312.08648437 -5.859375 311.26171875 C-11.22613723 303.08426171 -12.59092302 294.89336464 -12.50793457 285.27319336 C-12.51417453 284.14449546 -12.5204145 283.01579756 -12.52684355 281.85289669 C-12.54270538 278.09832859 -12.53019536 274.34441583 -12.51757812 270.58984375 C-12.52300226 267.88687263 -12.52998271 265.18394555 -12.53881836 262.48098755 C-12.55654743 255.91810801 -12.55278879 249.35541209 -12.5411678 242.79252553 C-12.53211153 237.45581517 -12.53091892 232.11915604 -12.53526306 226.78244019 C-12.53587599 226.02110682 -12.53648893 225.25977346 -12.53712043 224.47536939 C-12.53839941 222.9284373 -12.53969627 221.38150522 -12.5410108 219.83457315 C-12.55240015 205.34995755 -12.53932878 190.86544343 -12.51780933 176.38084447 C-12.49993983 163.9690148 -12.5030444 151.55733479 -12.52148438 139.14550781 C-12.54292023 124.7105453 -12.55130167 110.27567159 -12.53903532 95.84069538 C-12.53776121 94.29965021 -12.53650372 92.75860502 -12.53526306 91.21755981 C-12.53433741 90.08040721 -12.53433741 90.08040721 -12.53339306 88.92028183 C-12.52994829 83.59379524 -12.5357496 78.26736527 -12.54518127 72.94088745 C-12.55643288 66.44418913 -12.55329516 59.94768397 -12.5320583 53.4510076 C-12.52159002 50.14015679 -12.51952878 46.82969153 -12.53065491 43.51883316 C-12.541628 39.92117315 -12.52782378 36.32440993 -12.50793457 32.72680664 C-12.51685746 31.69244948 -12.52578034 30.65809233 -12.53497362 29.59239101 C-12.43374247 20.11526879 -10.06436907 11.57402443 -3.75 4.3125 C-3.04359375 3.48363281 -2.3371875 2.65476562 -1.609375 1.80078125 C-1.07828125 1.20652344 -0.5471875 0.61226563 0 0 Z " fill="#41479B" transform="translate(12,97)"/>
</svg>
